<?xml version="1.0" encoding="UTF-8" standalone="no"?>
<svg width="20px" height="20px" viewBox="0 0 20 20" version="1.1" xmlns="http://www.w3.org/2000/svg" xmlns:xlink="http://www.w3.org/1999/xlink">
    <!-- Generator: Sketch 3.8.3 (29802) - http://www.bohemiancoding.com/sketch -->
    <title>github</title>
    <desc>Created with Sketch.</desc>
    <defs></defs>
    <g id="视觉稿" stroke="none" stroke-width="1" fill="none" fill-rule="evenodd">
        <g id="footer1" transform="translate(-906.000000, -106.000000)" fill="#CCCCCC">
            <g id="github" transform="translate(906.000000, 106.000000)">
                <g id="Group" transform="translate(0.000000, 0.347782)">
                    <path d="M6.699218,18.8136569 C7.22448978,18.9421231 7.14438298,18.5792429 7.14438298,18.3337543 L7.14438298,16.6574178 C4.11138661,17.001471 3.99008202,15.0582349 3.78523746,14.7352236 C3.37325958,14.0548694 2.40244135,13.880997 2.69158878,13.5576166 C3.3827961,13.2135634 4.08621018,13.6447373 4.9006294,14.8109005 C5.49036811,15.6558981 6.64085447,15.5141423 7.22487124,15.3723865 C7.35189775,14.8640589 7.62540529,14.4103664 8.00038144,14.0567152 C4.85981307,13.5122104 3.54911309,11.6564642 3.54911309,9.44854333 C3.54911309,8.37872981 3.91417126,7.3941913 4.62902918,6.60013717 C4.17394621,5.29037238 4.67213426,4.17146114 4.73850849,4.00497187 C6.03738317,3.89164104 7.38508488,4.90460456 7.49036811,4.98397306 C8.22849514,4.79127372 9.07037956,4.68901757 10.0118253,4.68901757 C10.958993,4.68901757 11.804692,4.79496529 12.5470151,4.9895104 C12.7987793,4.80419418 14.0507343,3.93483228 15.2580584,4.04077998 C15.3225253,4.20726925 15.808888,5.30144705 15.3812703,6.59238488 C16.1060462,7.38828479 16.474919,8.38057558 16.474919,9.45408065 C16.474919,11.6653239 15.1565898,13.5232851 12.0061034,14.0600376 C12.5313752,14.5628278 12.8575243,15.2583173 12.8575243,16.0294838 L12.8575243,18.4640663 C12.8750715,18.6586114 12.8575243,18.8516799 13.1935915,18.8516799 C17.1504864,17.5607421 20,13.9411694 20,9.67705077 C20,4.329829 15.5216479,5.89860424e-07 10.0003815,5.89860424e-07 C4.47453748,-0.00184518442 0,4.32835236 0,9.675205 C0,13.9013006 2.79877931,17.494294 6.699218,18.8136569 Z" id="Shape"></path>
                </g>
            </g>
        </g>
    </g>
</svg>