<?xml version="1.0" encoding="UTF-8" standalone="no"?>
<svg width="20px" height="20px" viewBox="0 0 20 20" version="1.1" xmlns="http://www.w3.org/2000/svg" xmlns:xlink="http://www.w3.org/1999/xlink">
    <!-- Generator: Sketch 3.8.3 (29802) - http://www.bohemiancoding.com/sketch -->
    <title>weixi</title>
    <desc>Created with Sketch.</desc>
    <defs></defs>
    <g id="视觉稿" stroke="none" stroke-width="1" fill="none" fill-rule="evenodd">
        <g id="footer1" transform="translate(-1016.000000, -106.000000)" fill="#CCCCCC">
            <g id="weixi" transform="translate(1016.000000, 106.000000)">
                <g id="Group">
                    <path d="M6.2575,6.02 C5.8775,6.02 5.49375,6.275 5.49375,6.66125 C5.49375,7.04625 5.8775,7.305 6.2575,7.305 C6.6375,7.305 6.8925,7.04625 6.8925,6.66125 C6.89375,6.275 6.63875,6.02 6.2575,6.02 L6.2575,6.02 Z M9.8075,7.305 C10.19125,7.305 10.44375,7.04625 10.44375,6.66125 C10.44375,6.275 10.19,6.02 9.8075,6.02 C9.4275,6.02 9.04625,6.275 9.04625,6.66125 C9.04625,7.04625 9.42875,7.305 9.8075,7.305 L9.8075,7.305 Z M10,0 C4.47625,0 0,4.47625 0,10 C0,15.52375 4.47625,20 10,20 C15.52375,20 20,15.52375 20,10 C20,4.47625 15.52375,0 10,0 L10,0 Z M7.9075,12.58 C7.27375,12.58 6.76375,12.45 6.13,12.32125 L4.35625,13.22375 L4.8625,11.67625 C3.5925,10.77625 2.8325,9.61875 2.8325,8.20625 C2.8325,5.76 5.1175,3.83375 7.90625,3.83375 C10.40125,3.83375 12.58625,5.37375 13.02375,7.44375 C12.86375,7.425 12.7,7.41375 12.535,7.41375 C10.125,7.41375 8.2225,9.2375 8.2225,11.4825 C8.2225,11.8575 8.28,12.2175 8.37875,12.56125 C8.22375,12.57375 8.06625,12.58 7.9075,12.58 L7.9075,12.58 Z M15.39,14.38 L15.77125,15.6675 L14.38,14.89625 C13.87125,15.025 13.36375,15.1525 12.85875,15.1525 C10.445,15.1525 8.5425,13.48 8.5425,11.4225 C8.5425,9.36625 10.44625,7.69125 12.85875,7.69125 C15.1375,7.69125 17.16625,9.36625 17.16625,11.4225 C17.16625,12.58 16.40875,13.60625 15.39,14.38 L15.39,14.38 Z M14.24875,9.74875 C13.99875,9.74875 13.7475,10.0075 13.7475,10.26375 C13.7475,10.52125 13.99875,10.7775 14.24875,10.7775 C14.63,10.7775 14.885,10.5225 14.885,10.26375 C14.885,10.00625 14.63,9.74875 14.24875,9.74875 L14.24875,9.74875 Z M11.4575,9.74875 C11.20625,9.74875 10.95125,10.0075 10.95125,10.26375 C10.95125,10.52125 11.20625,10.7775 11.4575,10.7775 C11.8425,10.7775 12.0925,10.5225 12.0925,10.26375 C12.09375,10.00625 11.8425,9.74875 11.4575,9.74875 L11.4575,9.74875 Z" id="Shape"></path>
                </g>
            </g>
        </g>
    </g>
</svg>