<?xml version="1.0" encoding="UTF-8" standalone="no"?>
<svg width="20px" height="20px" viewBox="0 0 20 20" version="1.1" xmlns="http://www.w3.org/2000/svg" xmlns:xlink="http://www.w3.org/1999/xlink">
    <!-- Generator: Sketch 3.8.3 (29802) - http://www.bohemiancoding.com/sketch -->
    <title>share-webo-icon</title>
    <desc>Created with Sketch.</desc>
    <defs></defs>
    <g id="视觉稿" stroke="none" stroke-width="1" fill="none" fill-rule="evenodd">
        <g id="footer1" transform="translate(-978.000000, -106.000000)" fill="#CCCCCC">
            <g id="share-webo-icon" transform="translate(978.000000, 106.000000)">
                <g id="Group" transform="translate(0.007225, 0.077673)">
                    <path d="M8.37341219,0.126065008 C10.8928601,-0.282767633 13.5637891,0.310772152 15.6453373,1.79046256 C17.8264943,3.29092502 19.3622392,5.69620753 19.7814463,8.31318468 C20.3168752,11.3867309 19.2999693,14.6864821 17.0980634,16.8987856 C15.1555653,18.9243025 12.3289731,20.0511916 9.52728884,19.9121414 C6.56372589,19.8083736 3.70601023,18.2726287 1.95237839,15.8860156 C0.229869945,13.5948523 -0.396872739,10.5379191 0.248539382,7.74868881 C1.07449957,3.86787487 4.45313372,0.713389339 8.37341219,0.126065008 L8.37341219,0.126065008 Z M12.1131425,6.11751725 C11.8205317,6.18808212 11.5922472,6.56992727 11.880699,6.79821182 C12.5302701,7.1095152 13.4185003,6.83349427 13.9331803,7.45402152 C14.5786155,7.98945042 14.337877,8.87976007 14.4540756,9.60821415 C14.7570841,10.0585678 15.2613664,9.64557609 15.2841949,9.2284254 C15.7304126,7.44364704 13.8979209,5.60907585 12.1131425,6.11751725 L12.1131425,6.11751725 Z M6.26279695,9.3778501 C5.66717766,10.12703 5.18985965,11.1460154 5.5385019,12.1048105 C5.94525502,13.1528398 7.07008777,13.6695993 8.09320911,13.9290072 C9.89457738,14.3357603 11.9761256,14.0389904 13.3520714,12.7273941 C13.8584564,12.2272477 14.2901174,11.4323877 13.9518497,10.7247057 C13.7422346,10.2307747 13.2047262,10.0356931 12.7751446,9.78250059 C12.7896781,9.37574747 12.9951341,8.86312392 12.6028914,8.56635405 C11.9387868,8.08695654 11.0837595,8.44805275 10.386452,8.65145243 C10.361544,8.25091474 10.5483307,7.74660926 10.2100398,7.43324946 C9.8842029,7.09290219 9.35914849,7.18835193 8.9565544,7.3045737 C7.85873223,7.66985204 6.97879704,8.49583537 6.26279695,9.3778501 L6.26279695,9.3778501 Z M11.9844668,7.88154667 C12.3310526,8.04756128 12.6983874,8.16378306 13.0594836,8.29661787 C13.1383434,8.62867018 13.1217535,9.0022204 13.320971,9.29485436 C14.0411071,9.52105939 14.0722305,8.40246518 13.7754606,7.99363254 C13.4766112,7.35854866 12.1255965,6.93934156 11.9844668,7.88154667 L11.9844668,7.88154667 Z M8.77187035,9.78668274 C9.75141431,9.58122665 10.8471801,9.71198194 11.6690275,10.3158962 C12.1463454,10.6686974 12.4265254,11.3556306 12.115222,11.9076724 C11.6316655,12.856093 10.5193099,13.2690847 9.51899386,13.3728525 C8.3900252,13.4994487 6.82107738,13.094752 6.56166944,11.8225972 C6.5388179,10.6624589 7.77363388,9.98592337 8.77187035,9.78668274 L8.77187035,9.78668274 Z M8.59340176,10.4694568 C7.8089394,10.7620677 7.28594139,11.7831326 7.81931388,12.5198816 C8.66604616,13.6509298 10.7994667,13.0594696 10.8907806,11.621277 C10.8700085,10.5088983 9.49616542,9.96931036 8.59340176,10.4694568 L8.59340176,10.4694568 Z M8.70754403,12.5032686 C8.18456914,12.2687687 8.28625741,11.5569276 8.89638711,11.5735175 C9.51899386,11.7457938 8.95449797,12.2687687 8.70754403,12.5032686 L8.70754403,12.5032686 Z" id="Shape"></path>
                </g>
            </g>
        </g>
    </g>
</svg>