<?xml version="1.0" encoding="UTF-8" standalone="no"?>
<svg width="20px" height="20px" viewBox="0 0 20 20" version="1.1" xmlns="http://www.w3.org/2000/svg" xmlns:xlink="http://www.w3.org/1999/xlink">
    <!-- Generator: Sketch 3.8.3 (29802) - http://www.bohemiancoding.com/sketch -->
    <title>chrome-o</title>
    <desc>Created with Sketch.</desc>
    <defs></defs>
    <g id="视觉稿" stroke="none" stroke-width="1" fill="none" fill-rule="evenodd">
        <g id="footer1" transform="translate(-942.000000, -106.000000)" fill="#CCCCCC">
            <g id="chrome-o" transform="translate(942.000000, 106.000000)">
                <g id="Group">
                    <path d="M5.0187059,8.67891074 L2.16925991,3.74751304 C3.99234358,1.46173127 6.80307327,0 9.9501036,0 C13.5928548,0 16.7804994,1.95745211 18.5143836,4.87901679 L10.3934435,4.87901679 C10.2476879,4.8653522 10.1000345,4.85965862 9.95238102,4.85965862 C7.58271387,4.85738118 5.58464756,6.48460578 5.0187059,8.67891074 L5.0187059,8.67891074 L5.0187059,8.67891074 Z M13.5150426,6.31531674 L19.2200078,6.31531674 C19.6610703,7.44074732 19.9043758,8.66714403 19.9043758,9.95009694 C19.9043758,15.4083404 15.5093132,19.8383237 10.0647343,19.9001939 L14.1348835,12.850026 C14.7084166,12.0259755 15.0428194,11.0265628 15.0428194,9.9478195 C15.0428194,8.52746158 14.459797,7.24071294 13.5150426,6.31531674 L13.5150426,6.31531674 L13.5150426,6.31531674 L13.5150426,6.31531674 Z M6.33657943,9.95009694 C6.33657943,7.95582634 7.95773088,6.33467491 9.95200146,6.33467491 C11.946272,6.33467491 13.5678031,7.95582634 13.5678031,9.95009694 C13.5678031,11.9443675 11.9466516,13.5658985 9.95200146,13.5658985 C7.95735129,13.5658985 6.33657943,11.9447471 6.33657943,9.95009694 L6.33657943,9.95009694 Z M11.3146645,14.8583407 L8.46711631,19.7935342 C3.67160535,19.0765229 6.68532334e-06,14.9437444 6.68532334e-06,9.95009694 C6.68532334e-06,8.17749631 0.464602651,6.51155539 1.27726601,5.07108015 L5.34172157,12.1094813 C6.1562828,13.8433656 7.91711668,15.0447105 9.9542789,15.0447105 C10.4245684,15.0450901 10.8792955,14.9790446 11.3146645,14.8583407 L11.3146645,14.8583407 Z" id="Shape"></path>
                </g>
            </g>
        </g>
    </g>
</svg>